<svg width="30" height="30" fill="none" xmlns="http://www.w3.org/2000/svg"><g clip-path="url(#clip0_1224_1114)"><path fill-rule="evenodd" clip-rule="evenodd" d="M8.804.184c-2.441.11-4.558.707-6.267 2.409C.822 4.303.233 6.429.122 8.845c-.068 1.508-.47 12.902.694 15.89a7.561 7.561 0 004.366 4.354c.95.37 2.033.62 3.622.692 13.292.602 18.219.274 20.296-5.045.369-.947.623-2.03.693-3.616.607-13.325-.099-16.213-2.415-18.527C25.54.76 23.379-.487 8.804.184zm.123 26.917c-1.455-.065-2.245-.308-2.772-.512a4.882 4.882 0 01-2.833-2.824c-.886-2.27-.592-13.054-.513-14.8.077-1.708.424-3.27 1.63-4.476 1.492-1.49 3.42-2.219 16.55-1.626 1.714.077 3.28.423 4.489 1.626C26.97 5.977 27.71 7.92 27.108 21c-.066 1.452-.31 2.24-.514 2.765-1.35 3.462-4.458 3.942-17.667 3.336zM21.134 7.034a1.79 1.79 0 001.792 1.788 1.79 1.79 0 001.792-1.788 1.79 1.79 0 00-1.792-1.786c-.99 0-1.791.8-1.791 1.786zm-13.84 7.948c0 4.222 3.431 7.646 7.664 7.646s7.665-3.424 7.665-7.646c0-4.223-3.432-7.644-7.665-7.644-4.233 0-7.664 3.421-7.664 7.644zm2.69 0a4.969 4.969 0 014.974-4.962 4.969 4.969 0 014.975 4.962 4.97 4.97 0 01-4.975 4.964 4.97 4.97 0 01-4.974-4.964z" fill="#fff"/></g><defs><clipPath id="clip0_1224_1114"><path fill="#fff" d="M0 0h30v30H0z"/></clipPath></defs></svg>