<svg width="30" height="30" fill="none" xmlns="http://www.w3.org/2000/svg"><path d="M15.615.965C17.15.94 18.673.954 20.195.94a7.277 7.277 0 002.053 4.888l-.002-.002a8.222 8.222 0 004.942 2.095l.026.002v4.721a12.494 12.494 0 01-4.998-1.169l.077.032a14.429 14.429 0 01-1.947-1.121l.049.032c-.012 3.42.01 6.841-.024 10.25a8.917 8.917 0 01-1.6 4.645l.018-.03c-1.548 2.219-4.057 3.675-6.91 3.76h-.013a8.504 8.504 0 01-4.818-1.228l.038.022c-2.352-1.414-3.973-3.835-4.273-6.65l-.004-.039a21.712 21.712 0 01-.011-1.745c.459-4.48 4.213-7.947 8.776-7.947.512 0 1.015.044 1.503.128l-.052-.008c.023 1.734-.047 3.468-.047 5.202a4.021 4.021 0 00-5.123 2.455l-.009.028c-.125.4-.197.86-.197 1.337 0 .193.012.384.035.572l-.002-.023a3.993 3.993 0 004.108 3.362h-.008a3.936 3.936 0 003.235-1.87l.01-.016c.25-.349.421-.77.478-1.23l.001-.012c.117-2.098.07-4.183.082-6.28.011-4.72-.011-9.43.023-14.14l.004.003z" fill="#fff"/></svg>