<svg width="30" height="30" fill="none" xmlns="http://www.w3.org/2000/svg"><g clip-path="url(#clip0_1224_1123)"><path fill-rule="evenodd" clip-rule="evenodd" d="M11.983 18.88v-8.42c2.988 1.407 5.302 2.765 8.04 4.23-2.258 1.252-5.052 2.656-8.04 4.188zM28.637 6.274c-.516-.68-1.395-1.208-2.33-1.383-2.75-.522-19.9-.523-22.648 0-.75.14-1.418.48-1.992 1.009C-.751 8.145.007 20.178.59 22.127c.245.843.562 1.452.96 1.851.514.528 1.218.892 2.027 1.055 2.263.468 13.925.73 22.682.07a3.929 3.929 0 002.085-1.066c2.235-2.235 2.082-14.944.293-17.762z" fill="#fff"/></g><defs><clipPath id="clip0_1224_1123"><path fill="#fff" d="M0 0h30v30H0z"/></clipPath></defs></svg>